<?xml version="1.0" encoding="UTF-8"?>
<svg xmlns="http://www.w3.org/2000/svg" width="1200" height="1144" viewBox="0 0 1200 1144" role="img">
<title>Redis GET scaling</title>
<desc>Line charts generated from analysis.md. Every x-axis is number of cores.</desc>
<rect width="100%" height="100%" fill="white"/>
<g font-family="Inter, -apple-system, BlinkMacSystemFont, Segoe UI, sans-serif">
<text x="28.0" y="40.0" font-size="25" font-weight="700" text-anchor="start" fill="#172033">Redis GET scaling</text>
<text x="1172.0" y="39.0" font-size="12" font-weight="400" text-anchor="end" fill="#526075">Source: analysis.md</text>
<rect x="28" y="76" width="560" height="330" rx="12" fill="#f8fafc" stroke="#d9e0ea"/>
<text x="52.0" y="108.0" font-size="17" font-weight="700" text-anchor="start" fill="#172033">Server-client pairs</text>
<line x1="106" y1="341.0" x2="560" y2="341.0" stroke="#d9e0ea" stroke-width="1"/>
<text x="96.0" y="346.0" font-size="12" font-weight="400" text-anchor="end" fill="#526075">0</text>
<line x1="106" y1="302.0" x2="560" y2="302.0" stroke="#d9e0ea" stroke-width="1"/>
<text x="96.0" y="307.0" font-size="12" font-weight="400" text-anchor="end" fill="#526075">0.8</text>
<line x1="106" y1="263.0" x2="560" y2="263.0" stroke="#d9e0ea" stroke-width="1"/>
<text x="96.0" y="268.0" font-size="12" font-weight="400" text-anchor="end" fill="#526075">1.6</text>
<line x1="106" y1="224.0" x2="560" y2="224.0" stroke="#d9e0ea" stroke-width="1"/>
<text x="96.0" y="229.0" font-size="12" font-weight="400" text-anchor="end" fill="#526075">2.4</text>
<line x1="106" y1="185.0" x2="560" y2="185.0" stroke="#d9e0ea" stroke-width="1"/>
<text x="96.0" y="190.0" font-size="12" font-weight="400" text-anchor="end" fill="#526075">3.2</text>
<line x1="106" y1="146.0" x2="560" y2="146.0" stroke="#d9e0ea" stroke-width="1"/>
<text x="96.0" y="151.0" font-size="12" font-weight="400" text-anchor="end" fill="#526075">4</text>
<line x1="106.0" y1="341" x2="106.0" y2="346" stroke="#526075"/>
<text x="106.0" y="364.0" font-size="12" font-weight="400" text-anchor="middle" fill="#526075">2</text>
<line x1="333.0" y1="341" x2="333.0" y2="346" stroke="#526075"/>
<text x="333.0" y="364.0" font-size="12" font-weight="400" text-anchor="middle" fill="#526075">4</text>
<line x1="560.0" y1="341" x2="560.0" y2="346" stroke="#526075"/>
<text x="560.0" y="364.0" font-size="12" font-weight="400" text-anchor="middle" fill="#526075">6</text>
<line x1="106" y1="146" x2="106" y2="341" stroke="#526075"/>
<line x1="106" y1="341" x2="560" y2="341" stroke="#526075"/>
<polyline points="106.0,292.2 333.0,243.5 560.0,194.8" fill="none" stroke="#2563eb" stroke-width="3" stroke-linejoin="round" stroke-linecap="round"/>
<circle cx="106.0" cy="292.2" r="4.5" fill="white" stroke="#2563eb" stroke-width="3"/>
<circle cx="333.0" cy="243.5" r="4.5" fill="white" stroke="#2563eb" stroke-width="3"/>
<circle cx="560.0" cy="194.8" r="4.5" fill="white" stroke="#2563eb" stroke-width="3"/>
<line x1="420" y1="100" x2="442" y2="100" stroke="#2563eb" stroke-width="3"/>
<text x="448.0" y="104.0" font-size="12" font-weight="400" text-anchor="start" fill="#526075">Pairs</text>
<text x="333.0" y="390.0" font-size="13" font-weight="400" text-anchor="middle" fill="#172033">Number of cores</text>
<text x="47.0" y="243.5" font-size="13" font-weight="400" text-anchor="middle" fill="#172033" transform="rotate(-90 47.0 243.5)">Pairs</text>
<rect x="612" y="76" width="560" height="330" rx="12" fill="#f8fafc" stroke="#d9e0ea"/>
<text x="636.0" y="108.0" font-size="17" font-weight="700" text-anchor="start" fill="#172033">Aggregate throughput</text>
<line x1="690" y1="341.0" x2="1144" y2="341.0" stroke="#d9e0ea" stroke-width="1"/>
<text x="680.0" y="346.0" font-size="12" font-weight="400" text-anchor="end" fill="#526075">0</text>
<line x1="690" y1="302.0" x2="1144" y2="302.0" stroke="#d9e0ea" stroke-width="1"/>
<text x="680.0" y="307.0" font-size="12" font-weight="400" text-anchor="end" fill="#526075">800k</text>
<line x1="690" y1="263.0" x2="1144" y2="263.0" stroke="#d9e0ea" stroke-width="1"/>
<text x="680.0" y="268.0" font-size="12" font-weight="400" text-anchor="end" fill="#526075">1.6M</text>
<line x1="690" y1="224.0" x2="1144" y2="224.0" stroke="#d9e0ea" stroke-width="1"/>
<text x="680.0" y="229.0" font-size="12" font-weight="400" text-anchor="end" fill="#526075">2.4M</text>
<line x1="690" y1="185.0" x2="1144" y2="185.0" stroke="#d9e0ea" stroke-width="1"/>
<text x="680.0" y="190.0" font-size="12" font-weight="400" text-anchor="end" fill="#526075">3.2M</text>
<line x1="690" y1="146.0" x2="1144" y2="146.0" stroke="#d9e0ea" stroke-width="1"/>
<text x="680.0" y="151.0" font-size="12" font-weight="400" text-anchor="end" fill="#526075">4M</text>
<line x1="690.0" y1="341" x2="690.0" y2="346" stroke="#526075"/>
<text x="690.0" y="364.0" font-size="12" font-weight="400" text-anchor="middle" fill="#526075">2</text>
<line x1="917.0" y1="341" x2="917.0" y2="346" stroke="#526075"/>
<text x="917.0" y="364.0" font-size="12" font-weight="400" text-anchor="middle" fill="#526075">4</text>
<line x1="1144.0" y1="341" x2="1144.0" y2="346" stroke="#526075"/>
<text x="1144.0" y="364.0" font-size="12" font-weight="400" text-anchor="middle" fill="#526075">6</text>
<line x1="690" y1="146" x2="690" y2="341" stroke="#526075"/>
<line x1="690" y1="341" x2="1144" y2="341" stroke="#526075"/>
<polyline points="690.0,272.5 917.0,211.2 1144.0,153.8" fill="none" stroke="#2563eb" stroke-width="3" stroke-linejoin="round" stroke-linecap="round"/>
<circle cx="690.0" cy="272.5" r="4.5" fill="white" stroke="#2563eb" stroke-width="3"/>
<circle cx="917.0" cy="211.2" r="4.5" fill="white" stroke="#2563eb" stroke-width="3"/>
<circle cx="1144.0" cy="153.8" r="4.5" fill="white" stroke="#2563eb" stroke-width="3"/>
<line x1="1004" y1="100" x2="1026" y2="100" stroke="#2563eb" stroke-width="3"/>
<text x="1032.0" y="104.0" font-size="12" font-weight="400" text-anchor="start" fill="#526075">GET/s</text>
<text x="917.0" y="390.0" font-size="13" font-weight="400" text-anchor="middle" fill="#172033">Number of cores</text>
<text x="631.0" y="243.5" font-size="13" font-weight="400" text-anchor="middle" fill="#172033" transform="rotate(-90 631.0 243.5)">GET/s</text>
<rect x="28" y="430" width="560" height="330" rx="12" fill="#f8fafc" stroke="#d9e0ea"/>
<text x="52.0" y="462.0" font-size="17" font-weight="700" text-anchor="start" fill="#172033">Application speedup</text>
<line x1="106" y1="695.0" x2="560" y2="695.0" stroke="#d9e0ea" stroke-width="1"/>
<text x="96.0" y="700.0" font-size="12" font-weight="400" text-anchor="end" fill="#526075">0</text>
<line x1="106" y1="656.0" x2="560" y2="656.0" stroke="#d9e0ea" stroke-width="1"/>
<text x="96.0" y="661.0" font-size="12" font-weight="400" text-anchor="end" fill="#526075">0.6</text>
<line x1="106" y1="617.0" x2="560" y2="617.0" stroke="#d9e0ea" stroke-width="1"/>
<text x="96.0" y="622.0" font-size="12" font-weight="400" text-anchor="end" fill="#526075">1.2</text>
<line x1="106" y1="578.0" x2="560" y2="578.0" stroke="#d9e0ea" stroke-width="1"/>
<text x="96.0" y="583.0" font-size="12" font-weight="400" text-anchor="end" fill="#526075">1.8</text>
<line x1="106" y1="539.0" x2="560" y2="539.0" stroke="#d9e0ea" stroke-width="1"/>
<text x="96.0" y="544.0" font-size="12" font-weight="400" text-anchor="end" fill="#526075">2.4</text>
<line x1="106" y1="500.0" x2="560" y2="500.0" stroke="#d9e0ea" stroke-width="1"/>
<text x="96.0" y="505.0" font-size="12" font-weight="400" text-anchor="end" fill="#526075">3</text>
<line x1="106.0" y1="695" x2="106.0" y2="700" stroke="#526075"/>
<text x="106.0" y="718.0" font-size="12" font-weight="400" text-anchor="middle" fill="#526075">2</text>
<line x1="333.0" y1="695" x2="333.0" y2="700" stroke="#526075"/>
<text x="333.0" y="718.0" font-size="12" font-weight="400" text-anchor="middle" fill="#526075">4</text>
<line x1="560.0" y1="695" x2="560.0" y2="700" stroke="#526075"/>
<text x="560.0" y="718.0" font-size="12" font-weight="400" text-anchor="middle" fill="#526075">6</text>
<line x1="106" y1="500" x2="106" y2="695" stroke="#526075"/>
<line x1="106" y1="695" x2="560" y2="695" stroke="#526075"/>
<polyline points="106.0,630.0 333.0,572.1 560.0,517.5" fill="none" stroke="#2563eb" stroke-width="3" stroke-linejoin="round" stroke-linecap="round"/>
<circle cx="106.0" cy="630.0" r="4.5" fill="white" stroke="#2563eb" stroke-width="3"/>
<circle cx="333.0" cy="572.1" r="4.5" fill="white" stroke="#2563eb" stroke-width="3"/>
<circle cx="560.0" cy="517.5" r="4.5" fill="white" stroke="#2563eb" stroke-width="3"/>
<line x1="420" y1="454" x2="442" y2="454" stroke="#2563eb" stroke-width="3"/>
<text x="448.0" y="458.0" font-size="12" font-weight="400" text-anchor="start" fill="#526075">Measured</text>
<text x="333.0" y="744.0" font-size="13" font-weight="400" text-anchor="middle" fill="#172033">Number of cores</text>
<text x="47.0" y="597.5" font-size="13" font-weight="400" text-anchor="middle" fill="#172033" transform="rotate(-90 47.0 597.5)">Speedup (×)</text>
<rect x="612" y="430" width="560" height="330" rx="12" fill="#f8fafc" stroke="#d9e0ea"/>
<text x="636.0" y="462.0" font-size="17" font-weight="700" text-anchor="start" fill="#172033">Pair-scaling efficiency</text>
<line x1="690" y1="695.0" x2="1144" y2="695.0" stroke="#d9e0ea" stroke-width="1"/>
<text x="680.0" y="700.0" font-size="12" font-weight="400" text-anchor="end" fill="#526075">0</text>
<line x1="690" y1="656.0" x2="1144" y2="656.0" stroke="#d9e0ea" stroke-width="1"/>
<text x="680.0" y="661.0" font-size="12" font-weight="400" text-anchor="end" fill="#526075">25</text>
<line x1="690" y1="617.0" x2="1144" y2="617.0" stroke="#d9e0ea" stroke-width="1"/>
<text x="680.0" y="622.0" font-size="12" font-weight="400" text-anchor="end" fill="#526075">50</text>
<line x1="690" y1="578.0" x2="1144" y2="578.0" stroke="#d9e0ea" stroke-width="1"/>
<text x="680.0" y="583.0" font-size="12" font-weight="400" text-anchor="end" fill="#526075">75</text>
<line x1="690" y1="539.0" x2="1144" y2="539.0" stroke="#d9e0ea" stroke-width="1"/>
<text x="680.0" y="544.0" font-size="12" font-weight="400" text-anchor="end" fill="#526075">100</text>
<line x1="690" y1="500.0" x2="1144" y2="500.0" stroke="#d9e0ea" stroke-width="1"/>
<text x="680.0" y="505.0" font-size="12" font-weight="400" text-anchor="end" fill="#526075">125</text>
<line x1="690.0" y1="695" x2="690.0" y2="700" stroke="#526075"/>
<text x="690.0" y="718.0" font-size="12" font-weight="400" text-anchor="middle" fill="#526075">2</text>
<line x1="917.0" y1="695" x2="917.0" y2="700" stroke="#526075"/>
<text x="917.0" y="718.0" font-size="12" font-weight="400" text-anchor="middle" fill="#526075">4</text>
<line x1="1144.0" y1="695" x2="1144.0" y2="700" stroke="#526075"/>
<text x="1144.0" y="718.0" font-size="12" font-weight="400" text-anchor="middle" fill="#526075">6</text>
<line x1="690" y1="500" x2="690" y2="695" stroke="#526075"/>
<line x1="690" y1="695" x2="1144" y2="695" stroke="#526075"/>
<polyline points="690.0,539.0 917.0,547.3 1144.0,552.9" fill="none" stroke="#2563eb" stroke-width="3" stroke-linejoin="round" stroke-linecap="round"/>
<circle cx="690.0" cy="539.0" r="4.5" fill="white" stroke="#2563eb" stroke-width="3"/>
<circle cx="917.0" cy="547.3" r="4.5" fill="white" stroke="#2563eb" stroke-width="3"/>
<circle cx="1144.0" cy="552.9" r="4.5" fill="white" stroke="#2563eb" stroke-width="3"/>
<line x1="1004" y1="454" x2="1026" y2="454" stroke="#2563eb" stroke-width="3"/>
<text x="1032.0" y="458.0" font-size="12" font-weight="400" text-anchor="start" fill="#526075">Efficiency</text>
<text x="917.0" y="744.0" font-size="13" font-weight="400" text-anchor="middle" fill="#172033">Number of cores</text>
<text x="631.0" y="597.5" font-size="13" font-weight="400" text-anchor="middle" fill="#172033" transform="rotate(-90 631.0 597.5)">Percent (%)</text>
<rect x="28" y="784" width="560" height="330" rx="12" fill="#f8fafc" stroke="#d9e0ea"/>
<text x="52.0" y="816.0" font-size="17" font-weight="700" text-anchor="start" fill="#172033">DRAM read bandwidth</text>
<line x1="106" y1="1049.0" x2="560" y2="1049.0" stroke="#d9e0ea" stroke-width="1"/>
<text x="96.0" y="1054.0" font-size="12" font-weight="400" text-anchor="end" fill="#526075">0</text>
<line x1="106" y1="1010.0" x2="560" y2="1010.0" stroke="#d9e0ea" stroke-width="1"/>
<text x="96.0" y="1015.0" font-size="12" font-weight="400" text-anchor="end" fill="#526075">0.2</text>
<line x1="106" y1="971.0" x2="560" y2="971.0" stroke="#d9e0ea" stroke-width="1"/>
<text x="96.0" y="976.0" font-size="12" font-weight="400" text-anchor="end" fill="#526075">0.4</text>
<line x1="106" y1="932.0" x2="560" y2="932.0" stroke="#d9e0ea" stroke-width="1"/>
<text x="96.0" y="937.0" font-size="12" font-weight="400" text-anchor="end" fill="#526075">0.6</text>
<line x1="106" y1="893.0" x2="560" y2="893.0" stroke="#d9e0ea" stroke-width="1"/>
<text x="96.0" y="898.0" font-size="12" font-weight="400" text-anchor="end" fill="#526075">0.8</text>
<line x1="106" y1="854.0" x2="560" y2="854.0" stroke="#d9e0ea" stroke-width="1"/>
<text x="96.0" y="859.0" font-size="12" font-weight="400" text-anchor="end" fill="#526075">1</text>
<line x1="106.0" y1="1049" x2="106.0" y2="1054" stroke="#526075"/>
<text x="106.0" y="1072.0" font-size="12" font-weight="400" text-anchor="middle" fill="#526075">2</text>
<line x1="333.0" y1="1049" x2="333.0" y2="1054" stroke="#526075"/>
<text x="333.0" y="1072.0" font-size="12" font-weight="400" text-anchor="middle" fill="#526075">4</text>
<line x1="560.0" y1="1049" x2="560.0" y2="1054" stroke="#526075"/>
<text x="560.0" y="1072.0" font-size="12" font-weight="400" text-anchor="middle" fill="#526075">6</text>
<line x1="106" y1="854" x2="106" y2="1049" stroke="#526075"/>
<line x1="106" y1="1049" x2="560" y2="1049" stroke="#526075"/>
<polyline points="106.0,1001.8 333.0,941.8 560.0,879.9" fill="none" stroke="#2563eb" stroke-width="3" stroke-linejoin="round" stroke-linecap="round"/>
<circle cx="106.0" cy="1001.8" r="4.5" fill="white" stroke="#2563eb" stroke-width="3"/>
<circle cx="333.0" cy="941.8" r="4.5" fill="white" stroke="#2563eb" stroke-width="3"/>
<circle cx="560.0" cy="879.9" r="4.5" fill="white" stroke="#2563eb" stroke-width="3"/>
<line x1="420" y1="808" x2="442" y2="808" stroke="#2563eb" stroke-width="3"/>
<text x="448.0" y="812.0" font-size="12" font-weight="400" text-anchor="start" fill="#526075">DRAM read</text>
<text x="333.0" y="1098.0" font-size="13" font-weight="400" text-anchor="middle" fill="#172033">Number of cores</text>
<text x="47.0" y="951.5" font-size="13" font-weight="400" text-anchor="middle" fill="#172033" transform="rotate(-90 47.0 951.5)">GB/s</text>
</g>
</svg>
